<mxfile host="app.diagrams.net" agent="Mozilla/5.0 (Windows NT 10.0; Win64; x64) AppleWebKit/537.36 (KHTML, like Gecko) Chrome/136.0.0.0 Safari/537.36" version="27.0.6">
  <diagram name="Page-1" id="Px7pdY1pRLpqi8Cw-nhd">
    <mxGraphModel dx="872" dy="439" grid="1" gridSize="10" guides="1" tooltips="1" connect="1" arrows="1" fold="1" page="1" pageScale="1" pageWidth="827" pageHeight="1169" math="0" shadow="0">
      <root>
        <mxCell id="0" />
        <mxCell id="1" parent="0" />
        <mxCell id="6m_0CbD2jKFvUNBrLW5q-1" value="PAYMENT/DATABASE" style="swimlane;whiteSpace=wrap;html=1;" vertex="1" parent="1">
          <mxGeometry x="310" y="40" width="200" height="720" as="geometry" />
        </mxCell>
        <mxCell id="6m_0CbD2jKFvUNBrLW5q-19" value="confirm payment" style="rounded=1;whiteSpace=wrap;html=1;" vertex="1" parent="6m_0CbD2jKFvUNBrLW5q-1">
          <mxGeometry x="40" y="460" width="120" height="50" as="geometry" />
        </mxCell>
        <mxCell id="6m_0CbD2jKFvUNBrLW5q-24" value="update validity" style="rounded=1;whiteSpace=wrap;html=1;" vertex="1" parent="6m_0CbD2jKFvUNBrLW5q-1">
          <mxGeometry x="40" y="580" width="120" height="40" as="geometry" />
        </mxCell>
        <mxCell id="6m_0CbD2jKFvUNBrLW5q-2" value="MOBILE APP" style="swimlane;whiteSpace=wrap;html=1;" vertex="1" parent="1">
          <mxGeometry x="510" y="40" width="200" height="720" as="geometry" />
        </mxCell>
        <mxCell id="6m_0CbD2jKFvUNBrLW5q-10" value="get pass details" style="rounded=1;whiteSpace=wrap;html=1;" vertex="1" parent="6m_0CbD2jKFvUNBrLW5q-2">
          <mxGeometry x="40" y="150" width="120" height="40" as="geometry" />
        </mxCell>
        <mxCell id="6m_0CbD2jKFvUNBrLW5q-17" value="process payment" style="rounded=1;whiteSpace=wrap;html=1;" vertex="1" parent="6m_0CbD2jKFvUNBrLW5q-2">
          <mxGeometry x="40" y="390" width="120" height="40" as="geometry" />
        </mxCell>
        <mxCell id="6m_0CbD2jKFvUNBrLW5q-22" value="update pass" style="rounded=1;whiteSpace=wrap;html=1;" vertex="1" parent="6m_0CbD2jKFvUNBrLW5q-2">
          <mxGeometry x="40" y="530" width="120" height="40" as="geometry" />
        </mxCell>
        <mxCell id="6m_0CbD2jKFvUNBrLW5q-3" value="PASSENGER" style="swimlane;whiteSpace=wrap;html=1;" vertex="1" parent="1">
          <mxGeometry x="110" y="40" width="200" height="720" as="geometry" />
        </mxCell>
        <mxCell id="6m_0CbD2jKFvUNBrLW5q-7" value="" style="edgeStyle=orthogonalEdgeStyle;rounded=0;orthogonalLoop=1;jettySize=auto;html=1;" edge="1" parent="6m_0CbD2jKFvUNBrLW5q-3" source="6m_0CbD2jKFvUNBrLW5q-5" target="6m_0CbD2jKFvUNBrLW5q-6">
          <mxGeometry relative="1" as="geometry" />
        </mxCell>
        <mxCell id="6m_0CbD2jKFvUNBrLW5q-5" value="" style="ellipse;whiteSpace=wrap;html=1;aspect=fixed;" vertex="1" parent="6m_0CbD2jKFvUNBrLW5q-3">
          <mxGeometry x="80" y="40" width="40" height="40" as="geometry" />
        </mxCell>
        <mxCell id="6m_0CbD2jKFvUNBrLW5q-9" value="" style="edgeStyle=orthogonalEdgeStyle;rounded=0;orthogonalLoop=1;jettySize=auto;html=1;" edge="1" parent="6m_0CbD2jKFvUNBrLW5q-3" source="6m_0CbD2jKFvUNBrLW5q-6" target="6m_0CbD2jKFvUNBrLW5q-8">
          <mxGeometry relative="1" as="geometry" />
        </mxCell>
        <mxCell id="6m_0CbD2jKFvUNBrLW5q-6" value="receive expiration notice" style="rounded=1;whiteSpace=wrap;html=1;" vertex="1" parent="6m_0CbD2jKFvUNBrLW5q-3">
          <mxGeometry x="40" y="120" width="120" height="40" as="geometry" />
        </mxCell>
        <mxCell id="6m_0CbD2jKFvUNBrLW5q-8" value="open renewal section" style="rounded=1;whiteSpace=wrap;html=1;" vertex="1" parent="6m_0CbD2jKFvUNBrLW5q-3">
          <mxGeometry x="40" y="200" width="120" height="40" as="geometry" />
        </mxCell>
        <mxCell id="6m_0CbD2jKFvUNBrLW5q-14" value="" style="edgeStyle=orthogonalEdgeStyle;rounded=0;orthogonalLoop=1;jettySize=auto;html=1;" edge="1" parent="6m_0CbD2jKFvUNBrLW5q-3" source="6m_0CbD2jKFvUNBrLW5q-11" target="6m_0CbD2jKFvUNBrLW5q-13">
          <mxGeometry relative="1" as="geometry" />
        </mxCell>
        <mxCell id="6m_0CbD2jKFvUNBrLW5q-11" value="view current pass" style="rounded=1;whiteSpace=wrap;html=1;" vertex="1" parent="6m_0CbD2jKFvUNBrLW5q-3">
          <mxGeometry x="40" y="270" width="120" height="40" as="geometry" />
        </mxCell>
        <mxCell id="6m_0CbD2jKFvUNBrLW5q-16" value="" style="edgeStyle=orthogonalEdgeStyle;rounded=0;orthogonalLoop=1;jettySize=auto;html=1;" edge="1" parent="6m_0CbD2jKFvUNBrLW5q-3" source="6m_0CbD2jKFvUNBrLW5q-13" target="6m_0CbD2jKFvUNBrLW5q-15">
          <mxGeometry relative="1" as="geometry" />
        </mxCell>
        <mxCell id="6m_0CbD2jKFvUNBrLW5q-13" value="select renewal option" style="rounded=1;whiteSpace=wrap;html=1;" vertex="1" parent="6m_0CbD2jKFvUNBrLW5q-3">
          <mxGeometry x="40" y="360" width="120" height="40" as="geometry" />
        </mxCell>
        <mxCell id="6m_0CbD2jKFvUNBrLW5q-15" value="confirm renewal" style="rounded=1;whiteSpace=wrap;html=1;" vertex="1" parent="6m_0CbD2jKFvUNBrLW5q-3">
          <mxGeometry x="40" y="440" width="120" height="40" as="geometry" />
        </mxCell>
        <mxCell id="6m_0CbD2jKFvUNBrLW5q-29" value="" style="edgeStyle=orthogonalEdgeStyle;rounded=0;orthogonalLoop=1;jettySize=auto;html=1;" edge="1" parent="6m_0CbD2jKFvUNBrLW5q-3" source="6m_0CbD2jKFvUNBrLW5q-26" target="6m_0CbD2jKFvUNBrLW5q-28">
          <mxGeometry relative="1" as="geometry" />
        </mxCell>
        <mxCell id="6m_0CbD2jKFvUNBrLW5q-26" value="view updated pass" style="rounded=1;whiteSpace=wrap;html=1;" vertex="1" parent="6m_0CbD2jKFvUNBrLW5q-3">
          <mxGeometry x="40" y="580" width="120" height="40" as="geometry" />
        </mxCell>
        <mxCell id="6m_0CbD2jKFvUNBrLW5q-28" value="" style="ellipse;html=1;shape=endState;fillColor=#000000;strokeColor=#000000;" vertex="1" parent="6m_0CbD2jKFvUNBrLW5q-3">
          <mxGeometry x="82.5" y="670" width="35" height="30" as="geometry" />
        </mxCell>
        <mxCell id="6m_0CbD2jKFvUNBrLW5q-12" value="" style="endArrow=classic;html=1;rounded=0;exitX=0;exitY=0.5;exitDx=0;exitDy=0;entryX=1;entryY=0.25;entryDx=0;entryDy=0;" edge="1" parent="1" source="6m_0CbD2jKFvUNBrLW5q-10" target="6m_0CbD2jKFvUNBrLW5q-11">
          <mxGeometry width="50" height="50" relative="1" as="geometry">
            <mxPoint x="390" y="240" as="sourcePoint" />
            <mxPoint x="440" y="190" as="targetPoint" />
          </mxGeometry>
        </mxCell>
        <mxCell id="6m_0CbD2jKFvUNBrLW5q-18" value="" style="endArrow=classic;html=1;rounded=0;entryX=0;entryY=0.5;entryDx=0;entryDy=0;exitX=1;exitY=0.5;exitDx=0;exitDy=0;" edge="1" parent="1" source="6m_0CbD2jKFvUNBrLW5q-15" target="6m_0CbD2jKFvUNBrLW5q-17">
          <mxGeometry width="50" height="50" relative="1" as="geometry">
            <mxPoint x="390" y="490" as="sourcePoint" />
            <mxPoint x="440" y="440" as="targetPoint" />
          </mxGeometry>
        </mxCell>
        <mxCell id="6m_0CbD2jKFvUNBrLW5q-20" value="" style="endArrow=classic;html=1;rounded=0;exitX=0.5;exitY=1;exitDx=0;exitDy=0;entryX=1;entryY=0.5;entryDx=0;entryDy=0;" edge="1" parent="1" source="6m_0CbD2jKFvUNBrLW5q-17" target="6m_0CbD2jKFvUNBrLW5q-19">
          <mxGeometry width="50" height="50" relative="1" as="geometry">
            <mxPoint x="390" y="490" as="sourcePoint" />
            <mxPoint x="440" y="440" as="targetPoint" />
          </mxGeometry>
        </mxCell>
        <mxCell id="6m_0CbD2jKFvUNBrLW5q-21" value="" style="endArrow=classic;html=1;rounded=0;exitX=1;exitY=0.25;exitDx=0;exitDy=0;entryX=0;entryY=0;entryDx=0;entryDy=0;" edge="1" parent="1" source="6m_0CbD2jKFvUNBrLW5q-8" target="6m_0CbD2jKFvUNBrLW5q-10">
          <mxGeometry width="50" height="50" relative="1" as="geometry">
            <mxPoint x="390" y="260" as="sourcePoint" />
            <mxPoint x="440" y="210" as="targetPoint" />
          </mxGeometry>
        </mxCell>
        <mxCell id="6m_0CbD2jKFvUNBrLW5q-23" value="" style="endArrow=classic;html=1;rounded=0;entryX=0;entryY=0.5;entryDx=0;entryDy=0;exitX=0.417;exitY=1;exitDx=0;exitDy=0;exitPerimeter=0;" edge="1" parent="1" source="6m_0CbD2jKFvUNBrLW5q-19" target="6m_0CbD2jKFvUNBrLW5q-22">
          <mxGeometry width="50" height="50" relative="1" as="geometry">
            <mxPoint x="390" y="590" as="sourcePoint" />
            <mxPoint x="440" y="540" as="targetPoint" />
            <Array as="points">
              <mxPoint x="400" y="590" />
            </Array>
          </mxGeometry>
        </mxCell>
        <mxCell id="6m_0CbD2jKFvUNBrLW5q-25" value="" style="endArrow=classic;html=1;rounded=0;exitX=0.5;exitY=1;exitDx=0;exitDy=0;entryX=1;entryY=0.5;entryDx=0;entryDy=0;" edge="1" parent="1" source="6m_0CbD2jKFvUNBrLW5q-22" target="6m_0CbD2jKFvUNBrLW5q-24">
          <mxGeometry width="50" height="50" relative="1" as="geometry">
            <mxPoint x="390" y="590" as="sourcePoint" />
            <mxPoint x="440" y="540" as="targetPoint" />
          </mxGeometry>
        </mxCell>
        <mxCell id="6m_0CbD2jKFvUNBrLW5q-27" value="" style="edgeStyle=orthogonalEdgeStyle;rounded=0;orthogonalLoop=1;jettySize=auto;html=1;" edge="1" parent="1" source="6m_0CbD2jKFvUNBrLW5q-24" target="6m_0CbD2jKFvUNBrLW5q-26">
          <mxGeometry relative="1" as="geometry" />
        </mxCell>
        <mxCell id="6m_0CbD2jKFvUNBrLW5q-30" value="end" style="text;html=1;align=center;verticalAlign=middle;resizable=0;points=[];autosize=1;strokeColor=none;fillColor=none;" vertex="1" parent="1">
          <mxGeometry x="220" y="708" width="40" height="30" as="geometry" />
        </mxCell>
        <mxCell id="6m_0CbD2jKFvUNBrLW5q-31" value="start" style="text;html=1;align=center;verticalAlign=middle;resizable=0;points=[];autosize=1;strokeColor=none;fillColor=none;" vertex="1" parent="1">
          <mxGeometry x="225" y="78" width="50" height="30" as="geometry" />
        </mxCell>
      </root>
    </mxGraphModel>
  </diagram>
</mxfile>
